<?xml version="1.0" encoding="iso-8859-1"?>
<!-- Generator: Adobe Illustrator 19.0.0, SVG Export Plug-In . SVG Version: 6.00 Build 0)  -->
<svg version="1.1" id="Layer_1" xmlns="http://www.w3.org/2000/svg" xmlns:xlink="http://www.w3.org/1999/xlink" x="0px" y="0px"
	 viewBox="0 0 512 512" style="enable-background:new 0 0 512 512;" xml:space="preserve">
<path style="fill:#A5A5A5;" d="M467.478,256.804L467.478,256.804c0,17.519-14.202,31.722-31.722,31.722h-13.556
	c-4.389,23.133-13.48,44.6-26.253,63.363l9.591,9.591c12.388,12.388,12.388,32.473,0,44.861l0,0
	c-12.388,12.388-32.473,12.388-44.861,0l-9.591-9.591c-18.764,12.773-40.23,21.865-63.363,26.253v13.556
	c0,17.519-14.202,31.722-31.722,31.722s-31.722-14.202-31.722-31.722v-13.556c-23.133-4.389-44.6-13.48-63.363-26.253l-9.591,9.591
	c-12.388,12.388-32.473,12.388-44.861,0l0,0c-12.388-12.388-12.388-32.473,0-44.861l9.591-9.591
	c-12.773-18.764-21.865-40.23-26.253-63.363H76.243c-17.519,0-31.722-14.202-31.722-31.722l0,0
	c0-17.519,14.202-31.722,31.722-31.722h13.556c4.389-23.133,13.48-44.6,26.253-63.363l-9.591-9.591
	c-12.388-12.388-12.388-32.473,0-44.861l0,0c12.388-12.388,32.473-12.388,44.861,0l9.591,9.591
	c18.764-12.773,40.23-21.865,63.363-26.253V77.047c0-17.519,14.202-31.722,31.722-31.722s31.722,14.202,31.722,31.722v13.556
	c23.133,4.389,44.6,13.48,63.363,26.253l9.591-9.591c12.388-12.388,32.473-12.388,44.861,0l0,0
	c12.388,12.388,12.388,32.473,0,44.861l-9.591,9.591c12.773,18.764,21.865,40.23,26.253,63.363h13.558
	C453.276,225.082,467.478,239.284,467.478,256.804z"/>
<path style="fill:#CCCAC4;" d="M378.435,256.804c0,67.618-54.816,122.435-122.435,122.435s-122.435-54.816-122.435-122.435
	S188.381,134.369,256,134.369S378.435,189.185,378.435,256.804z"/>
<path style="fill:#FFFFFF;" d="M289.391,256.804c0,18.442-14.949,33.391-33.391,33.391s-33.391-14.949-33.391-33.391
	s14.949-33.391,33.391-33.391S289.391,238.363,289.391,256.804z"/>
<path style="fill:#777777;" d="M316.996,305.993c3.26,3.26,3.26,8.546,0,11.805c-16.292,16.294-37.955,25.266-60.996,25.266
	c-47.565,0-86.261-38.697-86.261-86.261c0-4.611,3.738-8.348,8.348-8.348c4.61,0,8.348,3.736,8.348,8.348
	c0,38.358,31.208,69.565,69.565,69.565c18.582,0,36.051-7.237,49.19-20.376C308.45,302.733,313.736,302.732,316.996,305.993z
	 M331.11,281.542c-4.164-1.978-9.144-0.207-11.123,3.958c-0.232,0.487-0.467,0.971-0.71,1.45c-2.075,4.117-0.42,9.137,3.696,11.212
	c1.205,0.608,2.488,0.896,3.751,0.896c3.052,0,5.994-1.681,7.461-4.592c0.301-0.595,0.594-1.195,0.882-1.801
	C337.046,288.5,335.275,283.521,331.11,281.542z M256,170.544c-22.468,0-43.74,8.59-59.902,24.19
	c-3.317,3.202-3.41,8.487-0.209,11.803c3.201,3.317,8.486,3.41,11.803,0.209c13.033-12.58,30.188-19.506,48.307-19.506
	c38.358,0,69.565,31.206,69.565,69.565c0,4.61,3.738,8.348,8.348,8.348c4.61,0,8.348-3.738,8.348-8.348
	C342.261,209.24,303.565,170.544,256,170.544z M182.636,231.26c1.115,0.503,2.282,0.741,3.43,0.741c3.18,0,6.22-1.828,7.613-4.914
	c0.183-0.404,0.37-0.808,0.559-1.208c1.979-4.164,0.208-9.145-3.957-11.123c-4.166-1.98-9.145-0.207-11.123,3.957
	c-0.237,0.499-0.469,0.999-0.696,1.504C176.565,224.42,178.434,229.363,182.636,231.26z"/>
<path style="fill:#84A7B7;" d="M498.34,193.969c4.556-0.736,8.835,2.362,9.57,6.912l0.177,1.099c0.733,4.551-2.361,8.836-6.912,9.57
	c-0.45,0.072-0.898,0.108-1.339,0.108c-4.025,0-7.57-2.918-8.231-7.02l-0.177-1.099C490.693,198.987,493.787,194.702,498.34,193.969
	z M477.031,156.287c1.489,2.853,4.397,4.487,7.407,4.487c1.301,0,2.622-0.305,3.856-0.949c4.087-2.134,5.671-7.176,3.537-11.263
	l-0.515-0.987c-2.134-4.086-7.176-5.672-11.263-3.537c-4.087,2.134-5.671,7.176-3.537,11.263L477.031,156.287z M502.586,272.628
	c-4.579-0.593-8.76,2.632-9.352,7.205C477.3,402.671,371.722,495.304,247.652,495.304c-4.61,0-8.348,3.738-8.348,8.348
	s3.738,8.348,8.348,8.348c64.612,0,126.812-23.561,175.143-66.342c47.91-42.408,78.805-100.537,86.995-163.677
	C510.384,277.408,507.157,273.221,502.586,272.628z M503.652,239.305c-4.61,0-8.348,3.739-8.348,8.349l-0.002,1.145
	c-0.019,4.61,3.703,8.363,8.313,8.382c0.012,0,0.023,0,0.036,0c4.595,0,8.328-3.714,8.348-8.313l0.001-1.217
	C512,243.042,508.262,239.305,503.652,239.305z M20.573,308.461l-0.177-1.099c-0.735-4.551-5.014-7.651-9.57-6.912
	c-4.551,0.733-7.647,5.019-6.912,9.57l0.177,1.099c0.661,4.102,4.206,7.02,8.231,7.02c0.441,0,0.889-0.035,1.339-0.108
	C18.213,317.298,21.307,313.013,20.573,308.461z M34.968,355.713c-2.133-4.086-7.176-5.672-11.263-3.537
	c-4.087,2.134-5.671,7.176-3.537,11.263l0.515,0.987c1.489,2.853,4.397,4.487,7.407,4.487c1.301,0,2.622-0.305,3.856-0.949
	c4.087-2.134,5.671-7.176,3.537-11.263L34.968,355.713z M272.696,8.348c0-4.61-3.738-8.348-8.348-8.348
	C199.736,0,137.535,23.561,89.205,66.342C41.295,108.751,10.4,166.88,2.209,230.019c-0.593,4.572,2.632,8.76,7.205,9.352
	c0.365,0.047,0.727,0.07,1.084,0.07c4.133,0,7.722-3.068,8.268-7.275C34.7,109.329,140.278,16.696,264.348,16.696
	C268.958,16.696,272.696,12.958,272.696,8.348z M16.696,264.344l0.002-1.145c0.019-4.61-3.703-8.363-8.313-8.382
	c-0.012,0-0.023,0-0.036,0c-4.595,0-8.328,3.714-8.348,8.313L0,264.348c0,4.61,3.738,8.347,8.348,8.347
	S16.696,268.955,16.696,264.344z"/>
<g>
</g>
<g>
</g>
<g>
</g>
<g>
</g>
<g>
</g>
<g>
</g>
<g>
</g>
<g>
</g>
<g>
</g>
<g>
</g>
<g>
</g>
<g>
</g>
<g>
</g>
<g>
</g>
<g>
</g>
</svg>
