<?xml version="1.0" encoding="iso-8859-1"?>
<!-- Generator: Adobe Illustrator 19.0.0, SVG Export Plug-In . SVG Version: 6.00 Build 0)  -->
<svg version="1.1" id="Capa_1" xmlns="http://www.w3.org/2000/svg" xmlns:xlink="http://www.w3.org/1999/xlink" x="0px" y="0px"
	 viewBox="0 0 512 512" style="enable-background:new 0 0 512 512;" xml:space="preserve">
<linearGradient id="SVGID_1_" gradientUnits="userSpaceOnUse" x1="0" y1="258.0002" x2="512.0003" y2="258.0002" gradientTransform="matrix(1 0 0 -1 0 514.0003)">
	<stop  offset="0" style="stop-color:#80D8FF"/>
	<stop  offset="1" style="stop-color:#EA80FC"/>
</linearGradient>
<path style="fill:url(#SVGID_1_);" d="M509.342,195.011L423.336,46.003C419.762,39.813,413.159,36,406.012,36
	c-4.139,0-296.033,0-300.021,0c-7.146,0-13.75,3.813-17.323,10.003L2.663,195.011c-4.322,7.482-3.368,17.194,2.751,23.7
	L241.43,469.725c7.928,8.437,21.362,8.296,29.143,0L506.59,218.711C512.717,212.194,513.648,202.472,509.342,195.011z
	 M156.604,225.011l50.912,150.247L66.246,225.011H156.604z M198.841,225.011h114.323l-57.161,168.69L198.841,225.011z
	 M355.401,225.011h90.357L304.489,375.257L355.401,225.011z M457.38,185.009h-99.735L337.639,76.002h56.823L457.38,185.009z
	 M296.969,76.002l20.005,109.006H195.03l20.005-109.006H296.969z M117.541,76.002h56.824l-20.006,109.006H54.624L117.541,76.002z"/>
<g>
</g>
<g>
</g>
<g>
</g>
<g>
</g>
<g>
</g>
<g>
</g>
<g>
</g>
<g>
</g>
<g>
</g>
<g>
</g>
<g>
</g>
<g>
</g>
<g>
</g>
<g>
</g>
<g>
</g>
</svg>
